<?xml version="1.0" standalone="no"?><!DOCTYPE svg PUBLIC "-//W3C//DTD SVG 1.1//EN" "http://www.w3.org/Graphics/SVG/1.1/DTD/svg11.dtd"><svg t="1571623070114" class="icon" viewBox="0 0 2730 1024" version="1.1" xmlns="http://www.w3.org/2000/svg" p-id="2878" xmlns:xlink="http://www.w3.org/1999/xlink" width="133.30078125" height="50"><defs><style type="text/css"></style></defs><path d="M901.802667 643.985067h945.723733v-71.168H901.802667zM51.2 912.4608h2636.561067V705.245867H51.2z" fill="#C30D23" p-id="2879"></path><path d="M308.8128 673.066667l-38.2208 239.394133h2197.777067l-38.2208-239.394133z" fill="#E73828" p-id="2880"></path><path d="M304.469333 700.3136h2130.030934l3.976533 24.9088H300.484267l3.976533-24.9088z m2121.864534-56.328533l3.8144 29.0816H308.821333l3.780267-29.0816h2113.7408z" fill="#FFFFFF" p-id="2881"></path><path d="M1733.307733 443.025067c-35.328-21.3504-20.437333-68.0448-20.437333-68.0448h-12.296533v12.450133h-7.1168v-12.458667h-11.844267v28.168534h-622.7712v-28.16h-11.861333v12.450133h-7.108267v-12.458667h-12.288s14.882133 46.702933-20.445867 68.053334c-35.328 21.341867-106.811733 1.399467-106.811733 1.399466-0.597333 24.379733 14.813867 30.7712 14.813867 30.7712h910.165333s15.402667-6.391467 14.813867-30.7712c0 0-71.4752 19.9424-106.811734-1.399466" fill="#F7B52C" p-id="2882"></path><path d="M1369.480533 482.244267h-455.082666s8.4736 20.4544 28.526933 31.573333h853.2224c20.053333-11.118933 28.526933-31.573333 28.526933-31.573333h-455.1936z" fill="#E73828" p-id="2883"></path><path d="M949.845333 500.522667h847.8464l6.0416 26.589866H935.338667z" fill="#C30D23" p-id="2884"></path><path d="M901.802667 643.985067v-59.895467h11.861333v59.895467h-11.861333z m94.6688 0v-59.895467h11.8528v59.895467h-11.861334z m100.437333 0v-59.895467h11.8528v59.895467h-11.861333z m96 0v-59.895467h11.844267v59.895467h-11.8528z m113.322667 0v-59.895467h11.844266v59.895467h-11.8528z m134.656 0v-59.895467h11.8528v59.895467h-11.861334z m113.024 0v-59.895467h11.861333v59.895467h-11.861333z m95.547733 0v-59.895467h11.861333v59.895467h-11.861333z m101.4784 0v-59.895467h11.8528v59.895467h-11.8528z m84.736 0v-59.895467h11.8528v59.895467h-11.8528z" fill="#E73828" p-id="2885"></path><path d="M1098.939733 823.0656c20.736 0 37.717333 14.506667 37.717334 32.238933v57.301334h-85.922134v-57.301334c0-17.732267 16.981333-32.238933 37.717334-32.238933h10.487466z m531.182934 0c19.438933 0 35.328 14.506667 35.328 32.238933v57.301334h-80.469334v-57.301334c0-17.732267 15.8976-32.238933 35.328-32.238933h9.813334z m-792.0896 0c19.4304 0 35.328 14.506667 35.328 32.238933v57.301334h-80.469334v-57.301334c0-17.732267 15.8976-32.238933 35.328-32.238933h9.813334z m538.2144-26.683733c26.7776 0 48.6912 18.824533 48.6912 41.838933v74.385067h-110.907734V838.229333c0-23.0144 21.905067-41.838933 48.6912-41.838933h13.525334z m497.450666 26.683733c20.744533 0 37.717333 14.506667 37.717334 32.238933v57.301334h-85.9136v-57.301334c0-17.732267 16.9728-32.238933 37.717333-32.238933h10.478933z" fill="#C30D23" p-id="2886"></path><path d="M1895.671467 527.752533H843.298133l-18.961066-9.480533v27.272533l58.069333 42.103467s16.5888 10.077867 35.549867 0h49.9968s23.330133 19.1232 48.213333 0h53.333333s24.149333 19.566933 45.7728 0h51.114667s23.697067 19.712 44.288 0h69.333333s21.333333 18.3808 43.255467 0h92.433067c21.930667 18.3808 43.264 0 43.264 0h69.3248c20.590933 19.712 44.288 0 44.288 0h51.114666c21.623467 19.566933 45.7728 0 45.7728 0h53.333334c24.8832 19.1232 48.213333 0 48.213333 0h50.005333c18.952533 10.077867 35.549867 0 35.549867 0l58.069333-42.103467v-27.272533l-18.961066 9.480533z" fill="#F7B52C" p-id="2887"></path></svg>