<?xml version="1.0" standalone="no"?><!DOCTYPE svg PUBLIC "-//W3C//DTD SVG 1.1//EN" "http://www.w3.org/Graphics/SVG/1.1/DTD/svg11.dtd"><svg t="1571903500874" class="icon" viewBox="0 0 1024 1024" version="1.1" xmlns="http://www.w3.org/2000/svg" p-id="17378" xmlns:xlink="http://www.w3.org/1999/xlink" width="50" height="50"><defs><style type="text/css"></style></defs><path d="M230.4 84C-4.8 239.2-70.4 554.4 84 789.6s470.4 300.8 705.6 146.4c235.2-154.4 300.8-470.4 146.4-705.6C781.6-4.8 465.6-70.4 230.4 84m536.8 816.8c-216 141.6-506.4 81.6-648-134.4-142.4-216-81.6-505.6 134.4-648 216-142.4 505.6-81.6 648 134.4 141.6 216 81.6 506.4-134.4 648" fill="#d73131" p-id="17379"></path><path d="M269.6 144C68 276.8 12 548 144 750.4 276.8 952 548.8 1008 750.4 876 952 742.4 1008 471.2 876 269.6 743.2 68 472 12 269.6 144m469.6 714.4c-192 126.4-451.2 72.8-577.6-119.2-126.4-192.8-72.8-451.2 120-577.6 192-126.4 451.2-72.8 577.6 119.2 125.6 192.8 72 451.2-120 577.6" fill="#d73131" p-id="17380"></path><path d="M290.4 497.6c4-69.6 40.8-133.6 99.2-172 60.8-40 133.6-45.6 196.8-22.4l21.6-14.4c-72.8-32-159.2-28-230.4 19.2-71.2 47.2-109.6 124.8-109.6 204l22.4-14.4z m439.2 24.8C725.6 592 688.8 656 630.4 694.4c-60.8 40-133.6 45.6-196.8 22.4l-21.6 14.4c72.8 32 159.2 28 230.4-19.2 71.2-47.2 109.6-124.8 108.8-204l-21.6 14.4zM295.2 183.2l32.8 26.4 35.2-23.2-15.2 39.2 32.8 26.4-41.6-2.4-15.2 39.2-11.2-40-42.4-2.4 35.2-23.2-10.4-40zM177.6 304.8l40.8 10.4 22.4-36 3.2 41.6 40.8 9.6-38.4 16 3.2 41.6-27.2-32-38.4 16 22.4-36-28.8-31.2z m276-181.6l18.4 37.6 41.6-5.6-30.4 28.8 18.4 37.6-36.8-19.2-30.4 28.8 7.2-41.6-36.8-19.2 41.6-6.4 7.2-40.8zM622.4 136l0.8 41.6 40 12-40 14.4 0.8 41.6-25.6-32.8-40 13.6 24-34.4-25.6-33.6 40 12 25.6-34.4zM122.4 464l40.8-8 4.8-41.6 20.8 36.8 40.8-8-28.8 31.2 20.8 36.8-37.6-18.4-28.8 31.2 4.8-41.6-37.6-18.4z m602.4 372.8l-32.8-26.4-35.2 23.2 15.2-39.2-32.8-26.4 41.6 2.4 15.2-39.2 11.2 40 42.4 2.4-35.2 23.2 10.4 40z m117.6-121.6l-40.8-10.4-22.4 36-3.2-41.6-40-9.6 38.4-16-2.4-41.6 27.2 32 38.4-16-22.4 36 27.2 31.2z m-276 181.6l-18.4-37.6-41.6 6.4 30.4-28.8-18.4-37.6 36.8 19.2 30.4-28.8-7.2 41.6 36.8 19.2-41.6 5.6-7.2 40.8z m-168.8-12.8l-0.8-41.6-40-12 40-14.4-0.8-41.6 25.6 32.8 40-13.6-24 34.4 25.6 33.6-40-12-25.6 34.4z m500.8-328.8l-40.8 8-4.8 41.6L832 568l-40.8 8 28.8-31.2-20.8-36.8 38.4 17.6 28.8-31.2-4.8 41.6 36.8 19.2z m-484.8 37.6c12-1.6 21.6-4 29.6-6.4 5.6 14.4 9.6 24.8 12.8 32.8 2.4 7.2 2.4 14.4-1.6 21.6-3.2 7.2-10.4 13.6-19.2 19.2L368 703.2c-22.4 14.4-40.8 9.6-56-13.6L268.8 624l23.2-15.2 9.6 15.2 75.2-48.8-21.6-32.8-102.4 66.4-13.6-21.6 125.6-81.6 48.8 75.2-98.4 64 18.4 28c6.4 10.4 15.2 12.8 24.8 6.4l58.4-37.6c4.8-3.2 8-6.4 10.4-9.6 2.4-3.2 2.4-7.2 0-12-2.4-4-6.4-13.6-13.6-27.2z m12-68l-20-31.2 60-39.2c-4.8-3.2-9.6-7.2-14.4-10.4l22.4-20.8c5.6 4.8 12 8.8 17.6 14.4l56.8-36.8L568 432l-22.4 14.4-7.2-11.2-97.6 63.2 7.2 11.2-22.4 15.2z m19.2-6.4l112.8-72.8 12.8 19.2-112.8 72.8-12.8-19.2zM590.4 504c8-1.6 16.8-4 26.4-7.2 3.2 7.2 6.4 13.6 8.8 20.8 4.8 12.8 0 24-15.2 33.6L592 563.2c-14.4 9.6-26.4 7.2-36-7.2l-16.8-26.4-19.2 12c5.6 12 8 22.4 7.2 31.2-0.8 13.6-8 30.4-23.2 51.2-12.8-5.6-22.4-9.6-28-11.2 21.6-24 28.8-43.2 20.8-56.8l-37.6 24.8-12.8-19.2 146.4-95.2 12.8 19.2-44.8 28.8 13.6 21.6c3.2 4.8 6.4 5.6 11.2 2.4l8.8-5.6c5.6-4 6.4-9.6 2.4-16.8-1.6-4-4-8-6.4-12z m84.8-22.4c-6.4-8-12.8-15.2-18.4-20 5.6-2.4 9.6-4 12.8-6.4 5.6-3.2 7.2-8 4-14.4-3.2-5.6-7.2-13.6-12.8-21.6l-22.4 14.4c20.8 32 31.2 60 32 82.4-9.6-1.6-18.4-3.2-28-3.2-0.8-19.2-8.8-42.4-25.6-68.8l-34.4-52.8 72.8-47.2-17.6-25.6 22.4-14.4 16.8 25.6 21.6-13.6c-4.8-1.6-12.8-4-24-8l10.4-19.2c6.4 1.6 15.2 4 27.2 8.8L704 312l16.8-11.2 12 18.4-44.8 28.8c11.2 16 20.8 28.8 30.4 40 0-15.2-1.6-31.2-4-46.4l24.8-3.2c4 26.4 5.6 50.4 4 73.6 10.4 7.2 17.6 10.4 20 8 0.8-0.8 1.6-2.4 1.6-4 0-2.4-1.6-6.4-4.8-12.8-3.2-6.4-5.6-12-8.8-16.8 6.4 0 15.2-1.6 26.4-3.2 3.2 5.6 6.4 14.4 10.4 24.8s4.8 18.4 2.4 23.2c-2.4 4.8-4.8 8.8-8.8 11.2-11.2 7.2-25.6 6.4-41.6-3.2-2.4 12.8-5.6 24.8-9.6 36.8-8.8-3.2-17.6-4.8-27.2-5.6 6.4-16 10.4-32 12.8-48.8-13.6-12.8-30.4-32.8-49.6-59.2l-53.6 34.4 12 18.4 44-28.8c0.8 1.6 6.4 10.4 16.8 28 10.4 16.8 15.2 28 15.2 32.8 0 4.8-0.8 10.4-2.4 14.4s-8 12-23.2 20z" fill="#d73131" p-id="17381"></path></svg>