<?xml version="1.0" standalone="no"?><!DOCTYPE svg PUBLIC "-//W3C//DTD SVG 1.1//EN" "http://www.w3.org/Graphics/SVG/1.1/DTD/svg11.dtd"><svg t="1571667695749" class="icon" viewBox="0 0 1024 1024" version="1.1" xmlns="http://www.w3.org/2000/svg" p-id="548" xmlns:xlink="http://www.w3.org/1999/xlink" width="50" height="50"><defs><style type="text/css"></style></defs><path d="M1023.627947 537.9584c0 83.795627-60.13952 151.732907-134.326614 151.732907H139.296427c-74.187093 0-134.32832-67.938987-134.32832-151.732907 0-83.802453 60.13952-151.73632 134.32832-151.73632h750.001493c74.190507 0 134.330027 67.933867 134.330027 151.73632z m0 0" fill="#fef4cb" p-id="549"></path><path d="M419.396267 499.6352h14.332586v22.833493h99.66592v-42.83392h-120.1664v-12.33408h134.166187v77.666987h-13.999787v-10.166613h-99.66592v48.500053c0 10.221227 4.83328 15.332693 14.49984 15.332693h82.167467c9.555627 0 15.332693-3.44576 17.332907-10.333866 2.000213-6.77888 3.500373-15.832747 4.50048-27.16672 4.333227 1.887573 9.110187 3.554987 14.332586 5.000533-1.55648 11.55584-3.223893 20.778667-5.000533 27.666773-3.33312 12.55424-12.66688 18.833067-27.999573 18.833067h-88.666454c-17.000107 0-25.499307-8.779093-25.499306-26.333867v-86.664533zM571.897173 584.46848c15.55456-8.94464 28.583253-21.333333 39.082667-37.16608a119.502507 119.502507 0 0 0-5.333333-11.49952 240.750933 240.750933 0 0 1-26.750294 18.167467c-2.000213-2.778453-4.5568-6.166187-7.666346-10.166614 10.221227-5.16608 19.66592-11.16672 28.33408-18.000213-4.8896-7.166293-10.7776-14.112427-17.667414-20.83328l8.333654-7.666347c7.166293 6.611627 13.359787 13.499733 18.583893 20.666027a158.578347 158.578347 0 0 0 17.416533-18.66752l10.333867 7.000747a229.41184 229.41184 0 0 1-21.333333 21.500586c10.610347 17.9456 15.499947 37.500587 14.667093 58.666667-0.44544 20.44416-9.557333 30.667093-27.333973 30.667093-4.666027 0-10.277547-0.110933-16.832854-0.3328-0.556373-3.887787-1.332907-8.388267-2.333013-13.499733 6.777173 0.889173 12.888747 1.332907 18.333013 1.332907 9.99936 0 15.22176-6.111573 15.6672-18.333014 0.3328-8.61184-0.416427-17.000107-2.249386-25.166506-9.777493 13.054293-21.582507 24.111787-35.416747 33.16736a332.813653 332.813653 0 0 0-7.835307-9.837227z m2.500267-110.334293h45.832533v-18.333014h12.99968v18.333014h45.666987v-18.333014h12.99968v18.333014h45.666987v11.834026h-45.666987v11.16672h-12.99968v-11.16672h-45.666987v10.999467h-12.99968v-10.999467h-45.832533v-11.834026z m60.499627 58.333866h40.41728c0.27648-8.27904 0.360107-18.445653 0.249173-30.49984h12.99968c0 9.611947-0.139947 19.77856-0.416427 30.49984h47.41632v11.834027h-46.416213c7.05536 31.721813 23.304533 53.16608 48.749227 64.3328a7486.0032 7486.0032 0 0 0-10.499414 11.49952c-21.889707-12.054187-36.749653-31.028907-44.583253-56.917333-6.33344 24.000853-21.973333 43.36128-46.916267 58.082986a147.234133 147.234133 0 0 0-8.4992-10.999466c28.166827-15.110827 43.88864-37.111467 47.167147-66.000214H634.897067v-11.83232z m62.999893-22.99904l6.66624-8.4992c8.999253 5.5552 17.16736 10.999467 24.4992 16.3328l-7.5008 9.66656c-6.2208-5.000533-14.11072-10.83392-23.66464-17.50016zM743.22944 554.30144c13.999787-13.221547 27.4432-31.445333 40.333653-54.66624l11.666774 6.00064c-5.000533 8.444587-9.99936 16.3328-14.999894 23.666347v90.83392h-12.499626v-73.66656c-6.166187 7.778987-12.3904 14.83264-18.66752 21.16608a167.794347 167.794347 0 0 0-5.833387-13.334187z m0.667307-51.833173c15.6672-12.445013 28.888747-28.054187 39.666346-46.83264l11.834027 6.833493c-13.666987 20.44416-28.555947 37.722453-44.66688 51.833173a146.52928 146.52928 0 0 0-6.833493-11.834026z m48.500053 60.166826h80v-13.666986h-72.999253v-10.999467h105.99936v10.999467h-20.333227v13.666986h24.333653v10.999467h-24.333653v24.1664c0 13.221547-6.66624 19.833173-20.000427 19.833173-6.00064 0-14.277973-0.054613-24.833706-0.167253-0.556373-3.66592-1.389227-8.1664-2.500267-13.499733 7.333547 0.77824 15.443627 1.16736 24.333653 1.16736 6.888107 0 10.333867-3.500373 10.333867-10.499414v-21.000533h-80v-10.999467z m16 18.665814l9.499307-7.166294a383.47776 383.47776 0 0 1 18.167466 20.50048l-10.333866 7.5008a400.510293 400.510293 0 0 0-17.332907-20.834986z m0.167253-117.666134h85.16608v66.333014h-11.999573v-5.666134h-61.166933v5.666134h-11.999574v-66.333014z m73.166507 10.499414h-61.166933v14.667093h61.166933v-14.667093z m-61.166933 39.668053h61.166933v-14.83264h-61.166933v14.83264z" fill="#d73131" p-id="550"></path><path d="M170.047147 605.76256l-54.268587-54.27712a11.999573 11.999573 0 0 1 0-16.981333 12.014933 12.014933 0 0 1 16.989867 0l52.491946 52.50048 121.494187-121.48736c4.780373-4.788907 12.53888-4.788907 17.32608 0s4.788907 12.547413 0 17.32608l-127.59552 127.59552c-4.7872 4.7872-14.511787 6.263467-19.29216 1.47456" fill="#d73131" p-id="551"></path></svg>