<?xml version="1.0" standalone="no"?><!DOCTYPE svg PUBLIC "-//W3C//DTD SVG 1.1//EN" "http://www.w3.org/Graphics/SVG/1.1/DTD/svg11.dtd"><svg t="1571624167737" class="icon" viewBox="0 0 1026 1024" version="1.1" xmlns="http://www.w3.org/2000/svg" p-id="3011" xmlns:xlink="http://www.w3.org/1999/xlink" width="50.09765625" height="50"><defs><style type="text/css"></style></defs><path d="M535.646208 407.284622a7.071289 7.071289 0 0 1-0.859022-1.160533L430.999097 232.163556a13.613511 13.613511 0 0 1-12.555378-6.627556 13.676089 13.676089 0 0 1 4.704711-18.733511 13.613511 13.613511 0 0 1 18.688 4.716089c2.372267 3.970844 2.497422 8.658489 0.745245 12.589511l101.489777 170.114844 101.489778-170.120533a13.6704 13.6704 0 0 1 0.750934-12.583822 13.613511 13.613511 0 0 1 18.693688-4.716089 13.676089 13.676089 0 0 1 4.699023 18.733511 13.6192 13.6192 0 0 1-12.555378 6.627556L553.367097 406.129778a7.071289 7.071289 0 0 1-0.876089 1.183289v390.439822c0 4.664889-3.771733 8.436622-8.419556 8.436622-4.653511 0-8.419556-3.777422-8.419555-8.436622V407.284622z" fill="#C9CACA" p-id="3012"></path><path d="M800.549319 562.460444L547.314119 410.709333l114.244267-191.488 255.249066 152.945778a16.099556 16.099556 0 0 1 5.535289 22.044445l-96.574577 161.877333a18.363733 18.363733 0 0 1-25.218845 6.360178z m-511.4368-0.910222a20.1216 20.1216 0 0 1-27.630933-6.968889L167.91643 397.755733a20.218311 20.218311 0 0 1 6.951822-27.693511l251.727645-150.8352 114.238578 191.488L289.112519 561.550222z" fill="#C30D23" p-id="3013"></path><path d="M700.55003 288.887467l-5.250844 23.000177 20.206933 12.105956-23.4496 2.104889-5.239467 23.005867-9.250133-21.697423-23.4496 2.104889 17.732267-15.5136-9.238756-21.697422 20.206934 12.105956 17.732266-15.519289z m60.689067 27.153066l-6.388622 3.874134 1.706666 7.281777-5.649066-4.886755-6.388623 3.879822 2.895645-6.900622-5.654756-4.886756 7.441067 0.625778 2.895644-6.900622 1.700978 7.287467 7.441067 0.625777z m0.256 31.715556l-7.463822 0.1536-2.161778 7.168-2.446222-7.071289-7.469511 0.159289 5.944888-4.528356-2.451911-7.0656 6.126934 4.266667 5.944889-4.516978-2.156089 7.156622 6.132622 4.278045z m-15.604622 27.591111l-6.542223-3.606756-5.438577 5.12 1.399466-7.350044-6.542222-3.601067 7.406933-0.938666 1.399467-7.350045 3.180089 6.769778 7.406933-0.932978-5.444266 5.12 3.1744 6.769778z m-33.4848 15.371378l1.052444-7.406934-6.7072-3.293866 7.355733-1.28 1.058134-7.412622 3.487289 6.616177 7.355733-1.285689-5.193956 5.370312 3.487289 6.610488-6.701511-3.288177-5.193955 5.370311zM387.598564 288.887467l17.737955 15.519289 20.201245-12.105956-9.238756 21.697422 17.732267 15.5136-23.4496-2.104889-9.244445 21.697423-5.245155-23.000178-23.4496-2.104889 20.206933-12.111645-5.250844-23.000177z m-60.689067 27.153066l7.441067-0.625777 1.706666-7.281778 2.889956 6.894933 7.441066-0.625778-5.649066 4.892445 2.889955 6.894933-6.388622-3.879822-5.649067 4.892444 1.706667-7.281777-6.388622-3.879823z m-0.256 31.715556l6.132622-4.278045-2.161778-7.156622 5.950578 4.522667 6.126933-4.272356-2.451911 7.0656 5.944889 4.528356-7.458133-0.159289-2.4576 7.0656-2.161778-7.162311-7.463822-0.1536z m15.604622 27.591111l3.1744-6.769778-5.444267-5.12 7.412623 0.932978 3.1744-6.769778 1.399466 7.350045 7.406934 0.938666-6.542223 3.601067 1.399467 7.350044-5.438578-5.12-6.542222 3.606756z m33.490489 15.371378l-5.199644-5.370311-6.701512 3.288177 3.492978-6.610488-5.199644-5.370312 7.355733 1.285689 3.492978-6.616177 1.052444 7.412622 7.355734 1.28-6.7072 3.293866 1.058133 7.406934z" fill="#FAEE00" p-id="3014"></path><path d="M532.852964 773.347556l-48.071112 65.058133a6.382933 6.382933 0 0 0 2.577067 9.642667c18.7392 8.226133 71.0144 26.242844 118.3744-3.185778a7.68 7.68 0 0 0 1.820445-11.514311l-52.144356-60.814223a14.415644 14.415644 0 0 0-22.556444 0.8192" fill="#727171" p-id="3015"></path><path d="M518.590919 791.512178c17.413689 6.411378 36.960711 8.726756 51.6608-4.778667 5.814044-5.341867-2.855822-13.994667-8.647111-8.664178-11.246933 10.325333-26.948267 6.337422-39.765333 1.621334-7.395556-2.719289-10.587022 9.119289-3.248356 11.821511" fill="#898989" p-id="3016"></path><path d="M500.130475 812.464356c29.485511 10.934044 64.250311 16.139378 89.173333-7.406934 5.7344-5.421511-2.924089-14.08-8.647111-8.669866-21.560889 20.366222-52.320711 13.511111-77.272178 4.255288-7.395556-2.742044-10.581333 9.102222-3.254044 11.821512" fill="#898989" p-id="3017"></path><path d="M484.298297 833.848889c41.688178 15.604622 92.8256 23.990044 128.045511-10.131911 5.671822-5.495467-2.986667-14.165333-8.647111-8.669867C571.787719 845.966222 524.791808 835.970844 487.546652 822.027378c-7.389867-2.7648-10.581333 9.079467-3.254044 11.821511" fill="#898989" p-id="3018"></path><path d="M869.441764 434.847289a4.909511 4.909511 0 0 1-4.192712-7.418311l23.637334-39.634489a4.892444 4.892444 0 1 1 8.402489 5.028978l-23.643023 39.634489a4.892444 4.892444 0 0 1-4.209777 2.389333z m-25.696712 43.064889a4.909511 4.909511 0 0 1-4.192711-7.418311l10.979556-18.403556a4.886756 4.886756 0 0 1 6.712889-1.695289c2.315378 1.388089 3.072 4.4032 1.683911 6.724267l-10.979556 18.403555a4.892444 4.892444 0 0 1-4.204089 2.389334z m-50.688 84.963555a4.909511 4.909511 0 0 1-4.192711-7.418311l33.609956-56.331378a4.886756 4.886756 0 0 1 6.712889-1.695288c2.315378 1.393778 3.072 4.4032 1.683911 6.724266l-33.604267 56.331378a4.892444 4.892444 0 0 1-4.209778 2.389333z" fill="#FFFFFF" p-id="3019"></path><path d="M658.139364 230.394311a4.972089 4.972089 0 0 1 0.056888 0.034133l47.906134 28.706134a4.909511 4.909511 0 0 1-2.514489 9.1136 4.846933 4.846933 0 0 1-2.503111-0.694045l-47.917511-28.711822a5.0176 5.0176 0 0 1-0.091023-0.056889l-20.736-12.424533 1.951289-4.039111a8.817778 8.817778 0 0 0 0.312889-6.866489 8.732444 8.732444 0 0 0-15.007289-2.4064 8.817778 8.817778 0 0 0-1.137777 9.045333l1.035377 2.326756L520.820964 389.802667a9.6256 9.6256 0 0 1-8.328534 4.733155 9.614222 9.614222 0 0 1-8.328533-4.733155l-21.202489-35.5328a4.909511 4.909511 0 0 1 1.6896-6.724267 4.892444 4.892444 0 0 1 6.712889 1.6896l21.1968 35.538489 96.045511-161.223111a18.631111 18.631111 0 0 1 3.299556-16.571734c5.097244-6.468267 14.262044-8.795022 21.794133-5.535288a18.460444 18.460444 0 0 1 10.080711 10.581333c1.217422 3.2768 1.467733 6.843733 0.779378 10.228622l13.579378 8.135111zM515.649764 866.036622c-26.794667 0-49.834667-8.226133-61.838223-13.499733a11.269689 11.269689 0 0 1-6.587733-12.344889c0.284444-1.655467 0.955733-3.242667 1.991111-4.653511l49.948445-67.584v-138.370845a4.898133 4.898133 0 1 1 9.784888 0v141.607823l-51.825777 70.132622a1.234489 1.234489 0 0 0-0.256 0.557511 1.501867 1.501867 0 0 0 0.8704 1.672533c19.245511 8.453689 68.869689 25.088 113.857422-2.878577a2.730667 2.730667 0 0 0 1.28-1.934223 2.702222 2.702222 0 0 0-0.625778-2.195911l-56.246044-65.609955V422.439822c0-3.572622 1.848889-6.7584 4.949333-8.521955a9.636978 9.636978 0 0 1 9.841778 0.113777L775.950564 560.924444a8.283022 8.283022 0 0 0 11.355022-2.861511l1.558755-2.605511a4.892444 4.892444 0 0 1 6.712889-1.700978c2.321067 1.393778 3.072 4.4032 1.6896 6.729956l-1.558755 2.605511a18.067911 18.067911 0 0 1-24.7808 6.252089L525.775986 422.4512l0.017066 344.849067 53.879467 62.856533a12.572444 12.572444 0 0 1-2.912711 18.852978c-20.502756 12.743111-41.784889 17.021156-61.104356 17.026844z m-11.593956-266.695111a4.898133 4.898133 0 0 1-4.892444-4.903822v-44.123022a4.898133 4.898133 0 1 1 9.784888 0v44.123022a4.892444 4.892444 0 0 1-4.892444 4.909511z m0-88.257422a4.898133 4.898133 0 0 1-4.892444-4.903822V422.4512l-78.842312 47.2576a4.881067 4.881067 0 0 1-6.712888-1.6896 4.909511 4.909511 0 0 1 1.695288-6.724267l78.848-47.251911a9.654044 9.654044 0 0 1 9.841778-0.113778c3.106133 1.763556 4.949333 4.949333 4.949334 8.521956v83.729067a4.892444 4.892444 0 0 1-4.892445 4.903822z m-145.163378-5.370311a4.909511 4.909511 0 0 1-2.514489-9.1136l30.714311-18.403556a4.892444 4.892444 0 0 1 6.712889 1.6896 4.9152 4.9152 0 0 1-1.695289 6.729956l-30.714311 18.403555a4.846933 4.846933 0 0 1-2.503111 0.694045zM245.256875 571.448889c-1.5872 0-3.185778-0.199111-4.755911-0.591645a19.228444 19.228444 0 0 1-11.8784-8.851911l-20.229689-33.911466a4.892444 4.892444 0 1 1 8.402489-5.034667l20.229688 33.911467c1.308444 2.195911 3.390578 3.748978 5.859556 4.369066 2.474667 0.625778 5.040356 0.250311 7.236267-1.063822l75.400533-45.181155a4.892444 4.892444 0 0 1 6.712889 1.6896 4.909511 4.909511 0 0 1-1.6896 6.724266l-75.406222 45.186845a19.177244 19.177244 0 0 1-9.8816 2.753422z m-45.203911-61.997511a4.892444 4.892444 0 0 1-4.204089-2.389334l-21.105778-35.362133a4.909511 4.909511 0 0 1 1.695289-6.724267 4.886756 4.886756 0 0 1 6.712889 1.695289l21.100089 35.362134a4.909511 4.909511 0 0 1-4.1984 7.418311zM161.630208 445.041778a4.892444 4.892444 0 0 1-4.204089-2.389334l-28.216889-47.291733a19.285333 19.285333 0 0 1-2.1504-14.671644 19.2512 19.2512 0 0 1 8.823467-11.901156l104.0384-62.338844a4.892444 4.892444 0 0 1 6.712889 1.695289 4.909511 4.909511 0 0 1-1.695289 6.724266L140.899897 377.201778c-2.190222 1.314133-3.7376 3.401956-4.357689 5.882311-0.625778 2.474667-0.244622 5.051733 1.063822 7.241955l28.216889 47.297423a4.909511 4.909511 0 0 1-4.1984 7.418311z m110.569244-147.319467a4.909511 4.909511 0 0 1-2.514488-9.1136l30.372977-18.193067a4.903822 4.903822 0 0 1 5.023289 8.419556l-30.378666 18.193067a4.846933 4.846933 0 0 1-2.503112 0.694044z m170.786134-15.121067a4.881067 4.881067 0 0 1-4.204089-2.389333l-33.285689-55.790933 1.035378-2.326756a8.817778 8.817778 0 0 0-1.137778-9.045333 8.726756 8.726756 0 1 0-15.007289 2.400711 8.817778 8.817778 0 0 0 0.312889 6.866489l1.951289 4.039111-66.087822 39.606044a4.886756 4.886756 0 0 1-6.712889-1.6896 4.920889 4.920889 0 0 1 1.6896-6.729955L380.424875 222.253511a18.722133 18.722133 0 0 1 0.779377-10.217244 18.454756 18.454756 0 0 1 10.075023-10.587023c7.537778-3.265422 16.708267-0.938667 21.794133 5.535289 3.726222 4.744533 4.903822 10.888533 3.299556 16.566045l30.805333 51.626666a4.909511 4.909511 0 0 1-4.1984 7.424z m30.407111 50.955378a4.892444 4.892444 0 0 1-4.209778-2.389333l-13.767111-23.068445a4.909511 4.909511 0 0 1 1.695289-6.724266 4.892444 4.892444 0 0 1 6.712889 1.6896l13.761422 23.074133a4.909511 4.909511 0 0 1-4.192711 7.418311z m297.534578-24.962844a4.846933 4.846933 0 0 1-2.503111-0.694045l-34.6624-20.764444a4.9152 4.9152 0 0 1-1.6896-6.729956 4.892444 4.892444 0 0 1 6.712888-1.6896l34.6624 20.764445a4.909511 4.909511 0 0 1-2.520177 9.1136z m122.1632 86.619022a4.909511 4.909511 0 0 1-4.192711-7.418311 6.633244 6.633244 0 0 0-2.275556-9.073778l-88.581689-53.077333a4.909511 4.909511 0 0 1-1.6896-6.724267 4.892444 4.892444 0 0 1 6.712889-1.6896l88.576 53.071645a16.469333 16.469333 0 0 1 5.654756 22.528 4.892444 4.892444 0 0 1-4.209778 2.389333z" fill="#B28247" p-id="3020"></path><path d="M906.550386 584.738133a2.633956 2.633956 0 0 1 4.3008-2.571377l15.758222 13.795555c0.864711 0.750933 2.104889 0.864711 3.089067 0.278756l17.965511-10.763378a2.633956 2.633956 0 0 1 3.766044 3.299555l-8.220444 19.285334c-0.443733 1.052444-0.170667 2.275556 0.688355 3.026489l15.7696 13.795555c1.922844 1.683911 0.568889 4.841244-1.962666 4.608l-20.849778-1.865955a2.628267 2.628267 0 0 0-2.656711 1.5872l-8.220445 19.296711a2.628267 2.628267 0 0 1-4.983466-0.455111l-4.664889-20.445867a2.639644 2.639644 0 0 0-2.332445-2.036622l-20.844089-1.877334a2.639644 2.639644 0 0 1-1.120711-4.892444l17.9712-10.763378a2.645333 2.645333 0 0 0 1.211734-2.844444l-4.664889-20.457245z m-810.951111 55.631645l15.337244 13.425778 17.481956-10.478934c5.028978-3.003733 10.9568 2.184533 8.658489 7.566222l-7.998578 18.779023 15.348622 13.425777c4.397511 3.862756 1.308444 11.1104-4.522667 10.581334l-20.280889-1.820445-7.998577 18.773334c-2.298311 5.393067-10.154667 4.687644-11.451734-1.029689l-4.539733-19.899734-20.280889-1.820444c-5.831111-0.529067-7.583289-8.209067-2.565689-11.224178l17.481956-10.467555-4.539734-19.911111c-1.308444-5.705956 5.461333-9.756444 9.875912-5.899378z m1.450666 24.837689c0.580267 2.554311-0.540444 5.182578-2.787555 6.542222l-15.928889 9.534578 18.477511 1.661155c2.6112 0.233244 4.767289 2.121956 5.353244 4.681956l4.124445 18.090666 7.281778-17.066666c1.024-2.412089 3.487289-3.8912 6.098489-3.652267l18.466133 1.661156-13.9776-12.231111a6.052978 6.052978 0 0 1-1.581511-6.929067l7.281778-17.089422-15.894756 9.528889a6.0416 6.0416 0 0 1-7.088356-0.631467l-13.954844-12.214045 4.130133 18.113423zM534.394652 29.781333c-1.297067-5.711644 5.461333-9.762133 9.875912-5.899377l15.331555 13.425777 17.476267-10.478933c5.028978-3.009422 10.962489 2.178844 8.664178 7.566222l-7.998578 18.773334 15.348622 13.425777c4.4032 3.862756 1.308444 11.116089-4.522667 10.581334l-20.280889-1.820445-7.998577 18.773334c-2.304 5.393067-10.154667 4.687644-11.451734-1.024l-4.539733-19.899734-20.286578-1.820444c-5.831111-0.529067-7.5776-8.214756-2.56-11.224178l17.481956-10.467556-4.539734-19.911111z m11.320889 18.938311c0.580267 2.548622-0.540444 5.176889-2.787555 6.536534l-15.928889 9.534578 18.477511 1.661155c2.6112 0.238933 4.767289 2.121956 5.353244 4.681956l4.124445 18.102044 7.276089-17.078044c1.024-2.412089 3.492978-3.885511 6.104178-3.652267l18.466133 1.661156-13.983289-12.231112a6.058667 6.058667 0 0 1-1.575822-6.923377l7.281778-17.089423-15.906134 9.534578c-2.247111 1.342578-5.097244 1.080889-7.076978-0.642844L541.585408 30.606222l4.130133 18.119111zM831.565141 845.937778a20.076089 20.076089 0 0 1-20.053333 20.098844 20.076089 20.076089 0 0 1-20.053333-20.098844 20.076089 20.076089 0 0 1 20.053333-20.093156 20.076089 20.076089 0 0 1 20.053333 20.093156zM421.271097 948.093156a29.110044 29.110044 0 0 0-29.070222-29.138489 29.110044 29.110044 0 0 0-29.075911 29.138489 29.110044 29.110044 0 0 0 29.070222 29.149866 29.110044 29.110044 0 0 0 29.070222-29.149866z m6.826667 0c0 19.8656-16.071111 35.976533-35.896889 35.976533-19.831467 0-35.902578-16.110933-35.902578-35.976533 0-19.859911 16.071111-35.965156 35.896889-35.965156 19.831467 0 35.896889 16.099556 35.896889 35.965156zM205.70203 125.019022l2.747734 12.919467a1.735111 1.735111 0 0 1-0.824889 1.831822l-11.832889 7.088356c-1.444978 0.864711-0.995556 2.980978 0.654222 3.089066l13.528178 0.898845c0.739556 0.045511 1.336889 0.557511 1.490489 1.257244l2.742044 12.925156c0.335644 1.575822 2.548622 1.723733 3.236978 0.210489l5.614933-12.361956a1.809067 1.809067 0 0 1 1.746489-1.052444l13.528178 0.898844c1.649778 0.108089 2.571378-1.917156 1.348267-2.958222l-10.057956-8.539022a1.604267 1.604267 0 0 1-0.4096-1.911467l5.614933-12.367644c0.682667-1.507556-0.967111-2.901333-2.4064-2.048l-11.832889 7.094044a1.723733 1.723733 0 0 1-1.9968-0.130844l-10.057955-8.544712c-1.2288-1.035378-3.163022 0.125156-2.833067 1.700978" fill="#FAEE00" p-id="3021"></path></svg>