<?xml version="1.0" standalone="no"?><!DOCTYPE svg PUBLIC "-//W3C//DTD SVG 1.1//EN" "http://www.w3.org/Graphics/SVG/1.1/DTD/svg11.dtd"><svg t="1571667985131" class="icon" viewBox="0 0 1024 1024" version="1.1" xmlns="http://www.w3.org/2000/svg" p-id="6667" xmlns:xlink="http://www.w3.org/1999/xlink" width="50" height="50"><defs><style type="text/css"></style></defs><path d="M511.987 511.987m-420.631178 0a420.631178 420.631178 0 1 0 841.262356 0 420.631178 420.631178 0 1 0-841.262356 0Z" fill="#FECC85" p-id="6668"></path><path d="M603.382822 359.695297c-51.2039 0-91.377822 57.089888-91.377822 57.089889s-37.893926-57.089888-91.397821-57.089889c-52.041898 0-94.539815 42.921916-97.32181 94.893815-1.565997 29.359943 7.897985 51.705899 21.233958 71.94186 26.647948 40.433921 143.14972 137.771731 167.655673 137.771731 25.013951 0 140.477726-96.983811 167.303673-137.771731 13.361974-20.32996 22.799955-42.581917 21.227958-71.94186-2.779995-51.971898-45.279912-94.893815-97.323809-94.893815" fill="#FF5E8A" p-id="6669"></path><path d="M368.919279 823.608391c-2.917994 0-5.885989-0.491999-8.793982-1.521997a299.479415 299.479415 0 0 1-4.655991-1.699996c-52.323898-19.647962-97.08781-54.281894-129.431747-100.155805-33.095935-46.937908-50.591901-102.2038-50.591902-159.821688 0-14.517972 11.769977-26.289949 26.289949-26.289948s26.289949 11.771977 26.289949 26.289948c0 93.279818 58.651885 177.979652 145.943715 210.759589 1.255998 0.473999 2.497995 0.927998 3.743992 1.369997 13.683973 4.857991 20.837959 19.885961 15.981969 33.571935-3.827993 10.773979-13.959973 17.497966-24.775952 17.497965zM822.260394 489.877043c-14.517972 0-26.289949-11.771977-26.289949-26.289948 0-93.279818-58.651885-177.979652-145.943715-210.759589-1.269998-0.477999-2.531995-0.933998-3.789992-1.385997-13.673973-4.88199-20.799959-19.923961-15.915969-33.597934 4.88199-13.677973 19.939961-20.799959 33.597934-15.915969 1.543997 0.549999 3.081994 1.109998 4.611991 1.685996 52.321898 19.647962 97.08781 54.281894 129.427747 100.155805 33.095935 46.937908 50.587901 102.2038 50.587902 159.821688 0.004 14.515972-11.767977 26.285949-26.285949 26.285948zM603.382822 333.405349c-39.097924 0-71.227861 23.571954-91.165822 43.141916-19.685962-19.575962-51.677899-43.141916-91.607822-43.141916-65.697872 0-119.977766 52.615897-123.573758 119.785766-2.167996 40.677921 13.531974 69.593864 25.53595 87.805828 16.583968 25.161951 57.273888 62.905877 89.823825 89.835825 72.225859 59.757883 92.24782 59.757883 99.787805 59.757883 7.633985 0 27.913945 0 99.765805-59.653883 32.303937-26.817948 72.779858-64.535874 89.507825-89.969825 11.993977-18.243964 27.685946-47.197908 25.50795-87.785828-3.597993-67.161869-57.879887-119.775766-123.581758-119.775766z m54.133894 178.679651c-23.057955 35.053932-118.099769 114.347777-145.261716 125.261755-26.959947-11.093978-123.543759-91.539821-145.783716-125.279755-12.921975-19.609962-17.983965-36.379929-16.933967-56.071891 2.065996-38.605925 33.947934-70.011863 71.067862-70.011863 31.931938 0 61.027881 32.785936 69.495864 45.341912 4.783991 7.207986 12.837975 11.569977 21.489958 11.713977 8.625983 0.236 16.845967-4.013992 21.867957-11.061979 9.117982-12.791975 39.451923-45.99391 69.921864-45.99391 37.123927 0 69.007865 31.405939 71.073861 70.013863 1.055998 19.647962-4.013992 36.421929-16.937967 56.087891z" fill="" p-id="6670"></path><path d="M997.708051 485.711051h-39.583922c-13.149974-225.537559-194.297621-406.687206-419.83718-419.83718V26.289949C538.286949 11.771977 526.514972 0 511.997 0c-14.519972 0-26.289949 11.771977-26.289949 26.289949v39.583922C260.169492 79.023846 79.019846 260.173492 65.869871 485.711051h-39.579922C11.769977 485.711051 0 497.483028 0 512.001s11.769977 26.289949 26.289949 26.289949h39.581922c13.149974 225.539559 194.297621 406.687206 419.83718 419.83718v39.581922c0 14.517972 11.769977 26.289949 26.289949 26.289949 14.517972 0 26.289949-11.771977 26.289949-26.289949v-39.581922c225.539559-13.147974 406.687206-194.297621 419.83718-419.83718h39.583922c14.517972 0 26.289949-11.771977 26.289949-26.289949s-11.771977-26.289949-26.291949-26.289949z m-124.437757 52.577898h32.173938c-13.001975 196.535616-170.621667 354.153308-367.155283 367.155283v-32.173938c0-14.517972-11.771977-26.289949-26.289949-26.289948-14.519972 0-26.289949 11.771977-26.289949 26.289948v32.173938c-196.535616-13.001975-354.153308-170.621667-367.155283-367.155283h32.169938c14.519972 0 26.289949-11.771977 26.289948-26.289949s-11.769977-26.289949-26.289948-26.289949H118.555768c13.001975-196.535616 170.617667-354.153308 367.155283-367.155283v32.169938c0 14.517972 11.769977 26.289949 26.289949 26.289948 14.517972 0 26.289949-11.771977 26.289949-26.289948V118.555768c196.535616 13.001975 354.153308 170.621667 367.155283 367.155283h-32.173938c-14.517972 0-26.289949 11.771977-26.289948 26.289949s11.769977 26.287949 26.287948 26.287949z" fill="" p-id="6671"></path></svg>