<?xml version="1.0" standalone="no"?><!DOCTYPE svg PUBLIC "-//W3C//DTD SVG 1.1//EN" "http://www.w3.org/Graphics/SVG/1.1/DTD/svg11.dtd"><svg t="1571907396853" class="icon" viewBox="0 0 1024 1024" version="1.1" xmlns="http://www.w3.org/2000/svg" p-id="20739" xmlns:xlink="http://www.w3.org/1999/xlink" width="50" height="50"><defs><style type="text/css"></style></defs><path d="M531.051531 862.823262l211.690074 0c42.618145 0 71.469879-40.792183 71.469879-83.411095l0-302.104933L531.051531 477.307234 531.051531 862.823262zM209.788132 779.412167c0 42.618912 40.156454 83.411095 82.775366 83.411095l200.384715 0L492.948213 477.307234 209.788132 477.307234 209.788132 779.412167zM827.177158 284.54922l-93.449473 0 7.807443-6.563486c19.093487-29.743802 21.90566-56.071679 12.05864-85.614401s-35.370323-83.001773-90.03598-92.848793c-54.664122-9.847787-98.677161 30.146473-98.677161 30.146473-28.337651 25.121272-50.645342 89.030325-50.645342 89.030325-2.255623-7.643074-18.941781-60.29141-50.399493-88.854701-40.056298-36.369965-92.89369-36.150338-117.412107-25.298432-24.518417 10.852674-50.444391 31.753575-69.938246 84.006659C256.990688 240.805054 287.337345 277.784654 287.337345 277.784654l8.45366 6.764438-98.968547 0c-21.310224 0-38.585935 17.275711-38.585935 38.585935l0 77.482059c0 21.310224 17.275711 38.585935 38.585935 38.585935l296.125627 0L492.948085 284.548452l38.103318 0 0 154.654696 296.125627 0c21.310224 0 38.585935-17.275711 38.585935-38.585935l0-77.482059C865.763093 301.824931 848.487382 284.54922 827.177158 284.54922zM373.956633 278.136543c-2.889177 0-19.695702 0.138274-36.58972-19.255681-26.000676-29.850609-15.4871-48.001247-1.607742-75.75459 10.274378-20.542872 26.145601-31.885709 38.837796-33.059442 17.33404-1.60787 55.210951-0.640334 78.963551 55.210183 16.366504 38.480662 22.791076 72.538979 22.791076 72.538979S376.845811 278.136543 373.956633 278.136543zM691.932662 258.880991c-16.89325 19.393827-33.699008 19.255681-36.588825 19.255681s-102.396367-0.320551-102.396367-0.320551 6.425979-34.058444 22.792611-72.538979c23.751832-55.851285 61.627976-56.818821 78.962016-55.210183 12.692195 1.173732 28.562523 12.51657 38.837028 33.05957C707.420657 210.879744 717.934872 229.029614 691.932662 258.880991z" p-id="20740" data-spm-anchor-id="a313x.7781069.0.i23" class="selected" fill="#ffffff"></path></svg>