<?xml version="1.0" standalone="no"?><!DOCTYPE svg PUBLIC "-//W3C//DTD SVG 1.1//EN" "http://www.w3.org/Graphics/SVG/1.1/DTD/svg11.dtd"><svg t="1571922189355" class="icon" viewBox="0 0 1024 1024" version="1.1" xmlns="http://www.w3.org/2000/svg" p-id="2794" xmlns:xlink="http://www.w3.org/1999/xlink" width="50" height="50"><defs><style type="text/css"></style></defs><path d="M397.796284 0h221.191135c20.117294 0 27.450692 2.081099 34.78409 6.045098 7.333398 3.963999 13.081196 9.711797 17.045195 17.045195s6.045098 14.666796 6.045098 34.78409v908.251234c0 20.117294-2.081099 27.450692-6.045098 34.78409-3.963999 7.333398-9.711797 13.081196-17.045195 17.045195-7.333398 3.963999-14.666796 6.045098-34.78409 6.045098H397.796284c-20.117294 0-27.450692-2.081099-34.78409-6.045098-7.333398-3.963999-13.081196-9.711797-17.045195-17.045195-3.963999-7.333398-6.045098-14.666796-6.045098-34.78409V57.874383c0-20.117294 2.081099-27.450692 6.045098-34.78409 3.963999-7.333398 9.711797-13.081196 17.045195-17.045195S377.67899 0 397.796284 0z" fill="#FFA100" p-id="2795"></path><path d="M62.243782 350.813897h218.317236c20.612794 0 28.144392 2.180199 35.67599 6.144198 7.531598 4.063099 13.477596 9.909997 17.441595 17.441595 4.063099 7.531598 6.144198 15.063196 6.144198 35.67599v554.464337c0 20.612794-2.180199 28.144392-6.144198 35.67599s-9.909997 13.477596-17.441595 17.441595c-7.531598 4.063099-15.063196 6.144198-35.67599 6.144198H62.243782c-20.612794 0-28.144392-2.180199-35.675989-6.144198s-13.477596-9.909997-17.441595-17.441595-6.144198-15.063196-6.144199-35.67599V410.07568c0-20.612794 2.180199-28.144392 6.144199-35.67599 4.063099-7.531598 9.909997-13.477596 17.441595-17.441595s15.063196-6.144198 35.675989-6.144198z" fill="#F85858" p-id="2796"></path><path d="M725.024388 441.985871h240.614729c16.747895 0 22.792993 1.783799 28.937192 5.054098 6.144198 3.270299 10.900997 8.126198 14.171296 14.171296 3.270299 6.144198 5.054099 12.189296 5.054098 28.937191v485.589858c0 16.747895-1.783799 22.792993-5.054098 28.937192-3.270299 6.144198-8.126198 10.900997-14.171296 14.171296-6.144198 3.270299-12.189296 5.054099-28.937192 5.054098H725.024388c-16.747895 0-22.792993-1.783799-28.937192-5.054098-6.144198-3.270299-10.900997-8.126198-14.171295-14.171296-3.270299-6.144198-5.054099-12.189296-5.054099-28.937192v-485.589858c0-16.747895 1.783799-22.792993 5.054099-28.937191 3.270299-6.144198 8.126198-10.900997 14.171295-14.171296 6.144198-3.270299 12.189296-5.054099 28.937192-5.054098z" fill="#379DF8" p-id="2797"></path><path d="M497.193555 228.920933H477.67086v-37.657989h61.541082v186.605245H497.490855zM147.667957 594.798026h-38.648989v-10.306397c0-10.801897 0.1982-19.126294 0.6937-24.973193 0.4955-5.846898 1.981999-11.198297 4.558599-15.955095 2.576599-4.756799 5.351398-8.225298 8.126197-10.207297 2.873899-2.081099 5.648698-3.567599 8.522598-4.558599 2.774799-0.991 6.045098-1.783799 9.810897-2.576599 3.765799-0.6937 7.333398-1.0901 10.702797-1.0901h38.153489c2.576599 0 6.045098 0.4955 10.207297 1.4865 4.261299 0.991 7.729798 1.981999 10.405497 3.171199 2.675699 1.0901 5.054099 2.576599 7.135198 4.360399 2.081099 1.783799 3.864899 3.666699 5.450498 5.648698s3.072099 4.558599 4.459499 7.531598c1.3874 3.072099 2.378399 5.351398 2.972999 7.036098 0.4955 1.6847 0.991 4.558599 1.387399 8.720797s0.6937 7.135198 0.7928 8.918997 0.1982 5.648698 0.1982 11.693797c-0.0991 9.711797-0.3964 16.648795-0.991 20.810994-0.5946 4.162199-1.2883 7.531598-2.180199 10.207297-0.8919 2.675699-2.081099 5.351398-3.468499 8.027098s-3.072099 5.252298-4.954998 7.531597-4.459499 4.162199-7.828898 5.648699c-3.369399 1.4865-5.846898 2.477499-7.432498 2.774799-1.5856 0.3964-8.621697 1.2883-21.009194 2.675699l-18.828994 2.774799c-4.162199 0.4955-7.135198 1.2883-8.819898 2.1802-1.6847 0.8919-3.072099 2.180199-4.162199 3.963998-1.0901 1.783799-1.783799 3.666699-1.981999 5.846899l-0.2973 8.720797-0.0991 2.774799c-0.0991 1.783799 0.1982 3.072099 0.8919 3.864899 0.3964 0.4955 0.8919 0.991 1.585599 1.3874 0.6937 0.3964 1.2883 0.5946 1.982 0.5946 0.5946 0 2.576599 0.0991 5.846898 0.0991h72.442079v37.459789H109.118068v-44.594987c0-8.720797 0.2973-14.666796 0.8919-17.639795 0.5946-3.072099 1.3874-6.540598 2.378399-10.603697s2.576599-7.729798 4.657699-11.099197 4.360399-6.045098 6.738798-7.927997c2.378399-1.981999 4.954999-3.567599 7.729798-4.954999s6.243298-2.477499 10.306397-3.567599c4.063099-0.991 9.117197-1.882899 15.162295-2.576599 5.945998-0.6937 9.711797-1.1892 11.198297-1.5856l4.162199-0.792799c5.846898-0.8919 9.612697-1.5856 11.198297-2.0811 1.5856-0.4955 2.972999-1.5856 4.162198-3.369399 1.1892-1.783799 1.981999-4.459499 2.1802-8.126197l0.3964-10.207297c0.4955-8.819897-0.1982-14.369496-2.2793-16.549696-1.783799-1.783799-3.468499-2.774799-4.954998-2.972999-1.4865-0.1982-4.459499-0.2973-8.720798-0.2973h-11.198296c-3.171199 0-5.747798 0.4955-7.828898 1.5856s-3.666699 2.180199-4.756799 3.369399c-1.0901 1.1892-1.783799 5.153198-2.279299 11.693796-0.4955 6.639698-0.5946 10.603697-0.4955 12.090197v3.963999zM808.565663 778.430272v-35.97329h42.018388c1.882899 0 4.162199-0.2973 6.738798-0.990999 2.675699-0.6937 4.558599-1.4865 5.648698-2.4775 1.1892-0.991 1.981999-2.378399 2.5766-4.063098s0.8919-5.054099 0.891899-10.009097-0.3964-8.423498-1.288299-10.504597c-1.1892-2.477499-2.675699-4.261299-4.558599-5.252299s-4.459499-1.4865-7.630698-1.486499h-20.612794c-4.954999 0-8.324398 0.7928-10.108197 2.378399-1.783799 1.5856-2.972999 2.774799-3.369399 3.567599s-0.6937 3.369399-0.693699 7.729798v8.720797h-35.87419c0-1.981999 0-3.369399-0.0991-4.261299 0-0.8919-0.0991-3.369399-0.1982-7.333397s0-7.729798 0.0991-11.198297c0.3964-8.324398 1.783799-14.765896 4.261299-19.522694 2.477499-4.657699 5.054099-8.027098 7.729798-10.009098s5.846898-3.765799 9.414497-5.450498 8.918997-2.576599 16.153295-2.576599h51.631085c2.675699 0 6.144198 0.5946 10.405497 1.783799 4.261299 1.1892 8.324398 3.270299 12.090196 6.045099s6.738798 7.036098 8.819898 12.486596c2.081099 5.450498 3.369399 10.504597 3.765799 15.063195 0.4955 4.558599 0.5946 9.612697 0.4955 15.261396-0.1982 6.639698-0.6937 12.387496-1.6847 17.342495-0.8919 4.954999-2.180199 8.324398-3.765799 10.108197l-6.243298 8.126198c3.072099 3.369399 5.252298 6.144198 6.738798 8.225297 1.3874 2.081099 2.576599 4.459499 3.468499 6.936998 0.8919 2.576599 1.6847 5.747798 2.378399 9.711797s0.991 10.900997 0.8919 21.009194c-0.1982 6.144198-0.4955 10.801897-0.8919 13.873996-0.3964 3.171199-1.1892 6.738798-2.378399 10.801897-1.1892 4.063099-2.576599 7.432498-4.063099 10.009097-1.4865 2.576599-3.864899 5.351398-7.135198 8.324397-3.171199 2.972999-5.747798 4.855899-7.729797 5.648699s-5.351398 1.6847-10.207297 2.576599c-4.954999 0.8919-8.027098 1.3874-9.513598 1.3874h-34.784089l-12.189297 0.2973c-4.162199-0.0991-8.423498-0.6937-12.684796-1.8829-4.261299-1.1892-8.126198-3.072099-11.594697-5.747798-3.468499-2.675699-6.540598-6.936998-9.216297-12.684796-2.675699-5.846898-4.063099-11.198297-4.261299-16.252396-0.1982-5.054099-0.2973-9.612697-0.2973-13.576696V796.763767H819.56576c-0.0991 3.963999-0.0991 7.432498 0 10.405497 0.0991 3.072099 0.6937 5.153198 1.7838 6.243298 1.0901 1.1892 2.279299 1.882899 3.468499 2.279299 1.2883 0.3964 3.765799 0.4955 7.531597 0.4955h19.720895c4.558599 0 8.126198-0.8919 10.702797-2.774799 2.576599-1.882899 4.162199-5.252298 4.657698-10.207297 0.4955-4.954999 0.3964-9.711797-0.2973-14.369496-0.5946-3.567599-1.6847-6.243298-3.171199-7.927998-1.4865-1.783799-3.567599-2.576599-6.045098-2.576599h-49.351786z" fill="#FFFFFF" p-id="2798"></path></svg>