<?xml version="1.0" standalone="no"?><!DOCTYPE svg PUBLIC "-//W3C//DTD SVG 1.1//EN" "http://www.w3.org/Graphics/SVG/1.1/DTD/svg11.dtd"><svg t="1571667715759" class="icon" viewBox="0 0 1024 1024" version="1.1" xmlns="http://www.w3.org/2000/svg" p-id="1443" xmlns:xlink="http://www.w3.org/1999/xlink" width="50" height="50"><defs><style type="text/css"></style></defs><path d="M1023.627947 534.739627c0 83.795627-60.13952 151.732907-134.326614 151.732906H139.296427c-74.187093 0-134.32832-67.938987-134.32832-151.732906 0-83.802453 60.13952-151.73632 134.32832-151.73632h750.001493c74.190507 0.001707 134.330027 67.933867 134.330027 151.73632z m0 0" fill="#B7B7B7" p-id="1444"></path><path d="M540.719787 591.250773a197.9904 197.9904 0 0 0-9.33376 12.33408c-29.277867-14.61248-51.77856-33.50016-67.500374-56.666453v69.666133h-12.99968v-69.500586c-16.889173 22.388053-39.44448 41.888427-67.66592 58.499413-2.111147-3.00032-5.111467-6.720853-8.999253-11.16672 30.16704-15.832747 54.00064-34.88768 71.5008-57.166507h-68.83328v-12.33408h73.99936v-31.332693h-64.167253v-12.33408h64.167253v-28.499627h12.99968v28.499627h64.832853v12.33408h-64.832853v31.332693h73.99936v12.33408h-69.333333c17.887573 23.888213 41.94304 41.888427 72.1664 54.00064zM544.22016 581.249707c15.55456-8.94464 28.583253-21.333333 39.082667-37.16608a119.502507 119.502507 0 0 0-5.333334-11.49952 240.750933 240.750933 0 0 1-26.750293 18.167466c-2.000213-2.778453-4.5568-6.166187-7.666347-10.166613 10.221227-5.16608 19.66592-11.16672 28.33408-18.000213-4.8896-7.166293-10.7776-14.11072-17.667413-20.83328l8.333653-7.666347c7.166293 6.611627 13.359787 13.499733 18.583894 20.666027a158.578347 158.578347 0 0 0 17.416533-18.66752l10.333867 7.000746a229.41184 229.41184 0 0 1-21.333334 21.500587c10.610347 17.9456 15.499947 37.500587 14.667094 58.666667-0.44544 20.44416-9.557333 30.667093-27.333974 30.667093-4.666027 0-10.277547-0.110933-16.832853-0.3328-0.556373-3.887787-1.332907-8.388267-2.333013-13.499733 6.777173 0.889173 12.888747 1.332907 18.333013 1.332906 9.99936 0 15.22176-6.111573 15.6672-18.333013 0.3328-8.61184-0.416427-17.000107-2.249387-25.166507-9.777493 13.054293-21.582507 24.111787-35.416746 33.16736a332.813653 332.813653 0 0 0-7.835307-9.837226z m2.500267-110.332587h45.832533v-18.333013h12.99968v18.333013h45.666987v-18.333013h12.99968v18.333013h45.666986v11.834027h-45.666986v11.16672h-12.99968v-11.16672h-45.666987v10.999466h-12.99968v-10.999466h-45.832533v-11.834027z m60.499626 58.33216h40.41728c0.27648-8.27904 0.360107-18.443947 0.249174-30.49984h12.99968c0 9.611947-0.139947 19.77856-0.416427 30.49984h47.41632v11.834027H661.469867c7.05536 31.721813 23.304533 53.16608 48.749226 64.3328a7486.0032 7486.0032 0 0 0-10.499413 11.49952c-21.889707-12.054187-36.749653-31.028907-44.583253-56.917334-6.33344 24.000853-21.973333 43.36128-46.916267 58.082987a147.234133 147.234133 0 0 0-8.4992-10.999467c28.166827-15.110827 43.88864-37.111467 47.167147-66.000213h-39.666347v-11.83232z m62.999894-22.99904l6.66624-8.4992c8.999253 5.5552 17.16736 10.999467 24.4992 16.3328l-7.5008 9.66656c-6.2208-5.000533-14.109013-10.83392-23.66464-17.50016zM715.554133 551.082667c13.999787-13.221547 27.4432-31.445333 40.333654-54.66624l11.666773 6.00064c-5.000533 8.444587-9.99936 16.3328-14.999893 23.666346v90.83392h-12.499627v-73.66656c-6.166187 7.778987-12.3904 14.83264-18.66752 21.16608a169.050453 169.050453 0 0 0-5.833387-13.334186z m0.6656-51.833174c15.6672-12.445013 28.888747-28.054187 39.666347-46.83264l11.834027 6.833494c-13.666987 20.44416-28.555947 37.722453-44.66688 51.833173a146.824533 146.824533 0 0 0-6.833494-11.834027z m48.500054 60.166827h80v-13.666987H771.720533v-10.999466h105.99936v10.999466h-20.333226v13.666987h24.333653v10.999467h-24.333653v24.1664c0 13.221547-6.66624 19.833173-20.000427 19.833173-6.00064 0-14.277973-0.054613-24.833707-0.167253-0.556373-3.66592-1.389227-8.1664-2.500266-13.499734 7.333547 0.77824 15.443627 1.16736 24.333653 1.16736 6.888107 0 10.333867-3.500373 10.333867-10.499413v-21.000533h-80v-10.999467z m16 18.66752l9.499306-7.166293a383.47776 383.47776 0 0 1 18.167467 20.50048l-10.333867 7.5008a398.943573 398.943573 0 0 0-17.332906-20.834987z m0.167253-117.66784h85.16608v66.333013h-11.999573v-5.666133h-61.166934v5.666133h-11.999573v-66.333013z m73.166507 10.50112h-61.166934v14.667093h61.166934v-14.667093z m-61.166934 39.666347h61.166934v-14.83264h-61.166934v14.83264z" fill="#FFFFFF" p-id="1445"></path><path d="M273.425067 608.238933a6.11328 6.11328 0 0 1-4.333227-1.795413L135.253333 472.610133a6.120107 6.120107 0 0 1 0-8.666453 6.12352 6.12352 0 0 1 8.666454 0l133.838506 133.83168a6.125227 6.125227 0 0 1 0 8.66816 6.109867 6.109867 0 0 1-4.333226 1.795413z m-133.833387 0a6.120107 6.120107 0 0 1-4.333227-1.795413 6.125227 6.125227 0 0 1 0-8.66816l133.83168-133.838507a6.125227 6.125227 0 0 1 8.66816 0 6.121813 6.121813 0 0 1 0 8.666454l-133.83168 133.840213a6.135467 6.135467 0 0 1-4.334933 1.795413z m0 0" fill="#FFFFFF" p-id="1446"></path></svg>